<?xml version="1.0" standalone="no"?>
<!DOCTYPE svg PUBLIC "-//W3C//DTD SVG 20010904//EN"
 "http://www.w3.org/TR/2001/REC-SVG-20010904/DTD/svg10.dtd">
<svg version="1.0" xmlns="http://www.w3.org/2000/svg"
 width="403.000000pt" height="392.000000pt" viewBox="0 0 403.000000 392.000000"
 preserveAspectRatio="xMidYMid meet">

<g transform="translate(0.000000,392.000000) scale(0.100000,-0.100000)"
fill="#fff" stroke="none">
<path d="M1930 3886 c-33 -22 -228 -132 -370 -208 -36 -20 -173 -94 -305 -166
-132 -72 -269 -146 -303 -165 -79 -42 -436 -307 -517 -383 -256 -240 -307
-299 -366 -430 -64 -141 -62 -111 -66 -983 -3 -498 0 -833 6 -896 18 -179 83
-318 209 -449 121 -125 274 -192 467 -203 120 -7 215 14 333 72 76 38 112 64
205 152 227 215 619 609 628 631 20 53 -1 121 -49 157 -37 28 -118 27 -154 -1
-14 -11 -173 -165 -353 -341 -215 -211 -344 -330 -377 -348 -175 -95 -387 -62
-518 82 -69 75 -107 157 -121 258 -7 53 -9 348 -7 870 l3 790 26 67 c15 38 46
93 70 124 64 84 304 306 426 396 249 182 214 159 458 293 39 21 214 117 390
213 176 96 332 181 346 190 26 14 30 13 125 -38 546 -292 1279 -771 1441 -943
95 -100 163 -232 188 -363 22 -113 22 -1549 0 -1641 -33 -142 -105 -247 -199
-292 -54 -26 -173 -51 -245 -51 -70 0 -154 27 -218 71 -27 18 -241 226 -477
462 l-429 429 424 424 c279 279 431 424 444 424 52 -1 49 32 58 -702 6 -485
12 -690 20 -708 16 -34 74 -70 111 -70 41 0 91 32 111 70 15 29 16 97 10 703
-4 427 -10 690 -17 722 -22 99 -95 183 -190 220 -64 24 -175 17 -238 -15 -30
-15 -182 -161 -476 -458 l-432 -436 -329 329 c-639 638 -610 615 -738 615 -84
0 -136 -21 -192 -77 -71 -71 -76 -92 -84 -333 -4 -118 -10 -445 -13 -727 -8
-563 -9 -548 53 -592 59 -42 162 -18 194 46 12 23 16 114 21 468 9 661 17 945
27 945 4 0 439 -430 966 -956 527 -526 981 -974 1009 -995 182 -139 415 -166
681 -78 214 71 374 279 422 553 7 38 11 335 11 827 0 832 -1 858 -56 1011 -52
146 -129 268 -241 382 -47 47 -242 199 -398 311 -86 61 -526 340 -630 400 -66
38 -154 89 -195 113 -41 25 -160 92 -264 149 -163 89 -194 103 -235 103 -32 0
-57 -7 -81 -24z"/>
</g>
</svg>
